<svg width="283" height="282" viewBox="0 0 283 282" fill="none" xmlns="http://www.w3.org/2000/svg">
<rect width="283" height="282" rx="24" fill="#D9D9D9"/>
<g clip-path="url(#clip0_25_2103)">
<path d="M171.323 97.339V53.5158L142.114 24.3003L112.906 53.5158V68.1235L171.323 97.339Z" fill="black" stroke="black" stroke-width="0.0751599" stroke-miterlimit="10"/>
<path d="M171.323 111.947L112.906 82.7312V111.947L171.323 141.162V111.947Z" fill="black" stroke="black" stroke-width="0.0751599" stroke-miterlimit="10"/>
<path d="M55.6974 126.554C59.0564 106.528 69.2019 88.8071 83.6921 75.8336V39.9351C48.774 60.1394 25.2793 97.905 25.2793 141.162C25.2793 184.419 48.774 222.185 83.6967 242.389V206.486C69.2064 193.513 59.0564 175.792 55.6974 155.77H112.905L171.323 184.985V155.77L112.905 126.554H55.702" fill="black"/>
<path d="M55.6974 126.554C59.0564 106.528 69.2019 88.8071 83.6921 75.8336V39.9351C48.774 60.1394 25.2793 97.905 25.2793 141.162C25.2793 184.419 48.774 222.185 83.6967 242.389V206.486C69.2064 193.513 59.0564 175.792 55.6974 155.77H112.905L171.323 184.985V155.77L112.905 126.554H55.702" stroke="black" stroke-width="0.0751599" stroke-miterlimit="10"/>
<path d="M171.323 199.593L112.906 170.378V254.34C122.243 256.746 132.028 258.024 142.114 258.024C206.638 258.024 258.949 205.701 258.949 141.162H229.741C229.741 179.325 205.356 211.791 171.323 223.819V199.593Z" fill="black"/>
</g>
<defs>
<clipPath id="clip0_25_2103">
<rect x="25.0513" y="23.9761" width="233.898" height="234.048" fill="white"/>
</clipPath>
</defs>
</svg>
