<svg width="282" height="282" viewBox="0 0 282 282" fill="none" xmlns="http://www.w3.org/2000/svg">
<g clip-path="url(#clip0_25_2409)">
<path d="M176.24 88.3936V35.5918L141.047 0.390625L105.854 35.5918V53.1924L176.24 88.3936Z" fill="#D9D9D9" stroke="#D9D9D9" stroke-width="0.0905588" stroke-miterlimit="10"/>
<path d="M176.24 105.994L105.854 70.793V105.994L176.24 141.195V105.994Z" fill="#D9D9D9" stroke="#D9D9D9" stroke-width="0.0905588" stroke-miterlimit="10"/>
<path d="M36.9251 123.595C40.9723 99.4655 53.1964 78.1137 70.6554 62.4822V19.2288C28.5833 43.5726 0.274902 89.0756 0.274902 141.195C0.274902 193.315 28.5833 238.818 70.6609 263.162V219.903C53.2019 204.271 40.9723 182.92 36.9251 158.796H105.854L176.24 193.997V158.796L105.854 123.595H36.9306" fill="#D9D9D9"/>
<path d="M36.9251 123.595C40.9723 99.4655 53.1964 78.1137 70.6554 62.4822V19.2288C28.5833 43.5726 0.274902 89.0756 0.274902 141.195C0.274902 193.315 28.5833 238.818 70.6609 263.162V219.903C53.2019 204.271 40.9723 182.92 36.9251 158.796H105.854L176.24 193.997V158.796L105.854 123.595H36.9306" stroke="#D9D9D9" stroke-width="0.0905588" stroke-miterlimit="10"/>
<path d="M176.24 211.598L105.854 176.396V277.561C117.105 280.46 128.894 282 141.047 282C218.791 282 281.819 218.957 281.819 141.195H246.626C246.626 187.177 217.245 226.294 176.24 240.787V211.598Z" fill="#D9D9D9"/>
</g>
<defs>
<clipPath id="clip0_25_2409">
<rect width="281.819" height="282" fill="white"/>
</clipPath>
</defs>
</svg>
