<svg width="283" height="283" viewBox="0 0 283 283" fill="none" xmlns="http://www.w3.org/2000/svg">
	<rect x="2" y="2" width="279" height="279" rx="22" stroke="#1B1B1B" stroke-width="4" stroke-dasharray="16 16"/>
	<path d="M99.9048 133L93.5412 109.727H96.4048L101.268 128.682H101.496L106.45 109.727H109.632L114.587 128.682H114.814L119.678 109.727H122.541L116.178 133H113.268L108.132 114.455H107.95L102.814 133H99.9048ZM126.053 133V109.727H128.871V120.091H141.28V109.727H144.098V133H141.28V122.591H128.871V133H126.053ZM149.74 133V109.727H163.786V112.227H152.558V120.091H163.058V122.591H152.558V130.5H163.967V133H149.74ZM187.32 109.727V133H184.592L171.911 114.727H171.683V133H168.865V109.727H171.592L184.32 128.045H184.547V109.727H187.32ZM92.1151 172V148.727H99.9787C101.797 148.727 103.289 149.038 104.456 149.659C105.623 150.273 106.486 151.117 107.047 152.193C107.607 153.269 107.888 154.492 107.888 155.864C107.888 157.235 107.607 158.451 107.047 159.511C106.486 160.572 105.626 161.405 104.467 162.011C103.308 162.61 101.827 162.909 100.024 162.909H93.6605V160.364H99.9332C101.176 160.364 102.176 160.182 102.933 159.818C103.698 159.455 104.251 158.939 104.592 158.273C104.941 157.598 105.115 156.795 105.115 155.864C105.115 154.932 104.941 154.117 104.592 153.42C104.244 152.723 103.687 152.186 102.922 151.807C102.157 151.42 101.145 151.227 99.8878 151.227H94.9332V172H92.1151ZM103.07 161.545L108.797 172H105.524L99.8878 161.545H103.07ZM112.584 172V148.727H126.629V151.227H115.402V159.091H125.902V161.591H115.402V169.5H126.811V172H112.584ZM132.663 172H129.709L138.254 148.727H141.163L149.709 172H146.754L139.8 152.409H139.618L132.663 172ZM133.754 162.909H145.663V165.409H133.754V162.909ZM160.516 172H153.334V148.727H160.834C163.091 148.727 165.023 149.193 166.629 150.125C168.235 151.049 169.466 152.379 170.322 154.114C171.179 155.841 171.607 157.909 171.607 160.318C171.607 162.742 171.175 164.83 170.311 166.58C169.447 168.322 168.19 169.663 166.538 170.602C164.887 171.534 162.879 172 160.516 172ZM156.152 169.5H160.334C162.258 169.5 163.853 169.129 165.118 168.386C166.383 167.644 167.326 166.587 167.947 165.216C168.569 163.845 168.879 162.212 168.879 160.318C168.879 158.439 168.572 156.822 167.959 155.466C167.345 154.102 166.429 153.057 165.209 152.33C163.989 151.595 162.47 151.227 160.652 151.227H156.152V169.5ZM173.24 148.727H176.467L182.922 159.591H183.195L189.649 148.727H192.876L184.467 162.409V172H181.649V162.409L173.24 148.727Z" fill="#1B1B1B"/>
</svg>
