<svg width="283" height="283" viewBox="0 0 283 283" fill="none" xmlns="http://www.w3.org/2000/svg">
	<rect x="2" y="2" width="279" height="279" rx="22" stroke="#1B1B1B" stroke-width="4" stroke-dasharray="16 16"/>
	<path d="M92.8111 125H89.9929C89.8262 124.189 89.5346 123.477 89.1179 122.864C88.7088 122.25 88.2088 121.735 87.6179 121.318C87.0346 120.894 86.3868 120.576 85.6747 120.364C84.9626 120.152 84.2202 120.045 83.4474 120.045C82.0384 120.045 80.7618 120.402 79.6179 121.114C78.4815 121.826 77.5762 122.875 76.902 124.261C76.2353 125.648 75.902 127.348 75.902 129.364C75.902 131.379 76.2353 133.08 76.902 134.466C77.5762 135.852 78.4815 136.902 79.6179 137.614C80.7618 138.326 82.0384 138.682 83.4474 138.682C84.2202 138.682 84.9626 138.576 85.6747 138.364C86.3868 138.152 87.0346 137.837 87.6179 137.42C88.2088 136.996 88.7088 136.477 89.1179 135.864C89.5346 135.242 89.8262 134.53 89.9929 133.727H92.8111C92.599 134.917 92.2126 135.981 91.652 136.92C91.0914 137.86 90.3944 138.659 89.5611 139.318C88.7277 139.97 87.7921 140.466 86.7543 140.807C85.724 141.148 84.6217 141.318 83.4474 141.318C81.4626 141.318 79.6974 140.833 78.152 139.864C76.6065 138.894 75.3906 137.515 74.5043 135.727C73.6179 133.939 73.1747 131.818 73.1747 129.364C73.1747 126.909 73.6179 124.788 74.5043 123C75.3906 121.212 76.6065 119.833 78.152 118.864C79.6974 117.894 81.4626 117.409 83.4474 117.409C84.6217 117.409 85.724 117.58 86.7543 117.92C87.7921 118.261 88.7277 118.761 89.5611 119.42C90.3944 120.072 91.0914 120.867 91.652 121.807C92.2126 122.739 92.599 123.803 92.8111 125ZM117.001 129.364C117.001 131.818 116.558 133.939 115.672 135.727C114.786 137.515 113.57 138.894 112.024 139.864C110.479 140.833 108.714 141.318 106.729 141.318C104.744 141.318 102.979 140.833 101.433 139.864C99.8878 138.894 98.6719 137.515 97.7855 135.727C96.8991 133.939 96.456 131.818 96.456 129.364C96.456 126.909 96.8991 124.788 97.7855 123C98.6719 121.212 99.8878 119.833 101.433 118.864C102.979 117.894 104.744 117.409 106.729 117.409C108.714 117.409 110.479 117.894 112.024 118.864C113.57 119.833 114.786 121.212 115.672 123C116.558 124.788 117.001 126.909 117.001 129.364ZM114.274 129.364C114.274 127.348 113.937 125.648 113.263 124.261C112.596 122.875 111.691 121.826 110.547 121.114C109.411 120.402 108.138 120.045 106.729 120.045C105.32 120.045 104.043 120.402 102.899 121.114C101.763 121.826 100.857 122.875 100.183 124.261C99.5166 125.648 99.1832 127.348 99.1832 129.364C99.1832 131.379 99.5166 133.08 100.183 134.466C100.857 135.852 101.763 136.902 102.899 137.614C104.043 138.326 105.32 138.682 106.729 138.682C108.138 138.682 109.411 138.326 110.547 137.614C111.691 136.902 112.596 135.852 113.263 134.466C113.937 133.08 114.274 131.379 114.274 129.364ZM121.74 117.727H125.104L133.013 137.045H133.286L141.195 117.727H144.558V141H141.922V123.318H141.695L134.422 141H131.876L124.604 123.318H124.376V141H121.74V117.727ZM153.027 117.727V141H150.209V117.727H153.027ZM177.132 117.727V141H174.405L161.723 122.727H161.496V141H158.678V117.727H161.405L174.132 136.045H174.359V117.727H177.132ZM198.68 125C198.43 124.235 198.101 123.549 197.692 122.943C197.29 122.33 196.809 121.807 196.249 121.375C195.696 120.943 195.067 120.614 194.362 120.386C193.658 120.159 192.885 120.045 192.044 120.045C190.665 120.045 189.411 120.402 188.283 121.114C187.154 121.826 186.256 122.875 185.589 124.261C184.923 125.648 184.589 127.348 184.589 129.364C184.589 131.379 184.927 133.08 185.601 134.466C186.275 135.852 187.188 136.902 188.339 137.614C189.491 138.326 190.786 138.682 192.226 138.682C193.559 138.682 194.733 138.398 195.749 137.83C196.771 137.254 197.567 136.443 198.135 135.398C198.711 134.345 198.999 133.106 198.999 131.682L199.862 131.864H192.862V129.364H201.726V131.864C201.726 133.78 201.317 135.447 200.499 136.864C199.688 138.28 198.567 139.379 197.135 140.159C195.711 140.932 194.074 141.318 192.226 141.318C190.165 141.318 188.355 140.833 186.794 139.864C185.241 138.894 184.029 137.515 183.158 135.727C182.294 133.939 181.862 131.818 181.862 129.364C181.862 127.523 182.108 125.867 182.601 124.398C183.101 122.92 183.805 121.663 184.714 120.625C185.624 119.587 186.699 118.792 187.942 118.239C189.184 117.686 190.552 117.409 192.044 117.409C193.271 117.409 194.415 117.595 195.476 117.966C196.544 118.33 197.495 118.848 198.328 119.523C199.169 120.189 199.87 120.989 200.43 121.92C200.991 122.845 201.377 123.871 201.589 125H198.68ZM110.92 162.545C110.784 161.394 110.231 160.5 109.261 159.864C108.292 159.227 107.102 158.909 105.693 158.909C104.663 158.909 103.761 159.076 102.989 159.409C102.223 159.742 101.625 160.201 101.193 160.784C100.769 161.367 100.557 162.03 100.557 162.773C100.557 163.394 100.705 163.928 101 164.375C101.303 164.814 101.689 165.182 102.159 165.477C102.629 165.765 103.121 166.004 103.636 166.193C104.152 166.375 104.625 166.523 105.057 166.636L107.42 167.273C108.027 167.432 108.701 167.652 109.443 167.932C110.193 168.212 110.909 168.595 111.591 169.08C112.28 169.557 112.848 170.17 113.295 170.92C113.742 171.67 113.966 172.591 113.966 173.682C113.966 174.939 113.636 176.076 112.977 177.091C112.326 178.106 111.371 178.913 110.114 179.511C108.864 180.11 107.345 180.409 105.557 180.409C103.89 180.409 102.447 180.14 101.227 179.602C100.015 179.064 99.0606 178.314 98.3636 177.352C97.6742 176.39 97.2841 175.273 97.1932 174H100.102C100.178 174.879 100.473 175.606 100.989 176.182C101.511 176.75 102.17 177.174 102.966 177.455C103.769 177.727 104.633 177.864 105.557 177.864C106.633 177.864 107.598 177.689 108.455 177.341C109.311 176.985 109.989 176.492 110.489 175.864C110.989 175.227 111.239 174.485 111.239 173.636C111.239 172.864 111.023 172.235 110.591 171.75C110.159 171.265 109.591 170.871 108.886 170.568C108.182 170.265 107.42 170 106.602 169.773L103.739 168.955C101.92 168.432 100.481 167.686 99.4205 166.716C98.3598 165.746 97.8295 164.477 97.8295 162.909C97.8295 161.606 98.1818 160.47 98.8864 159.5C99.5985 158.523 100.553 157.765 101.75 157.227C102.955 156.682 104.299 156.409 105.784 156.409C107.284 156.409 108.617 156.678 109.784 157.216C110.951 157.746 111.875 158.473 112.557 159.398C113.246 160.322 113.61 161.371 113.648 162.545H110.92ZM138.236 168.364C138.236 170.818 137.793 172.939 136.906 174.727C136.02 176.515 134.804 177.894 133.259 178.864C131.713 179.833 129.948 180.318 127.963 180.318C125.978 180.318 124.213 179.833 122.668 178.864C121.122 177.894 119.906 176.515 119.02 174.727C118.134 172.939 117.69 170.818 117.69 168.364C117.69 165.909 118.134 163.788 119.02 162C119.906 160.212 121.122 158.833 122.668 157.864C124.213 156.894 125.978 156.409 127.963 156.409C129.948 156.409 131.713 156.894 133.259 157.864C134.804 158.833 136.02 160.212 136.906 162C137.793 163.788 138.236 165.909 138.236 168.364ZM135.509 168.364C135.509 166.348 135.171 164.648 134.497 163.261C133.83 161.875 132.925 160.826 131.781 160.114C130.645 159.402 129.372 159.045 127.963 159.045C126.554 159.045 125.277 159.402 124.134 160.114C122.997 160.826 122.092 161.875 121.418 163.261C120.751 164.648 120.418 166.348 120.418 168.364C120.418 170.379 120.751 172.08 121.418 173.466C122.092 174.852 122.997 175.902 124.134 176.614C125.277 177.326 126.554 177.682 127.963 177.682C129.372 177.682 130.645 177.326 131.781 176.614C132.925 175.902 133.83 174.852 134.497 173.466C135.171 172.08 135.509 170.379 135.509 168.364ZM162.611 168.364C162.611 170.818 162.168 172.939 161.281 174.727C160.395 176.515 159.179 177.894 157.634 178.864C156.088 179.833 154.323 180.318 152.338 180.318C150.353 180.318 148.588 179.833 147.043 178.864C145.497 177.894 144.281 176.515 143.395 174.727C142.509 172.939 142.065 170.818 142.065 168.364C142.065 165.909 142.509 163.788 143.395 162C144.281 160.212 145.497 158.833 147.043 157.864C148.588 156.894 150.353 156.409 152.338 156.409C154.323 156.409 156.088 156.894 157.634 157.864C159.179 158.833 160.395 160.212 161.281 162C162.168 163.788 162.611 165.909 162.611 168.364ZM159.884 168.364C159.884 166.348 159.546 164.648 158.872 163.261C158.205 161.875 157.3 160.826 156.156 160.114C155.02 159.402 153.747 159.045 152.338 159.045C150.929 159.045 149.652 159.402 148.509 160.114C147.372 160.826 146.467 161.875 145.793 163.261C145.126 164.648 144.793 166.348 144.793 168.364C144.793 170.379 145.126 172.08 145.793 173.466C146.467 174.852 147.372 175.902 148.509 176.614C149.652 177.326 150.929 177.682 152.338 177.682C153.747 177.682 155.02 177.326 156.156 176.614C157.3 175.902 158.205 174.852 158.872 173.466C159.546 172.08 159.884 170.379 159.884 168.364ZM185.804 156.727V180H183.077L170.395 161.727H170.168V180H167.349V156.727H170.077L182.804 175.045H183.031V156.727H185.804Z" fill="#1B1B1B"/>
</svg>
